# xmcd CD database file
# Copyright (C) 1997 Ti Kan
# 
# Track frame offsets:
#     150
#     21603
#     39595
#     63650
#     89055
#     129917
#     166868
#     184940
#     200090
#     225385
#     240058
#     257045
# 
# Disc length: 3802 seconds
# 
# Revision: 1
# Processed by: cddbd v1.4b41PL1 Copyright (c) Steve Scherf et al.
# Submitted via: DiscPlay 4.0.4
# 
DISCID=a10ed80c
DTITLE=Gram Parsons and the Fallen Angels - Gram Parsons and the Fallen Ange
DTITLE=ls  Live 1973
DYEAR=1900
DGENRE=
TTITLE0=We'll Sweep Out The Ashes
TTITLE1=Country Baptizing
TTITLE2=Drug Store Truck Driving Man
TTITLE3=Big Mouth Blues
TTITLE4=The New Soft Shoe
TTITLE5=Cry One More Time
TTITLE6=Streets Of Baltimore
TTITLE7=That's All It Took
TTITLE8=Love Hurts
TTITLE9=California Cottonfields
TTITLE10=Six Days on the Road
TTITLE11=Encore Medley: Bony Maroni, Forty Days, Almost Grown
EXTD=
EXTT0=
EXTT1=
EXTT2=
EXTT3=
EXTT4=
EXTT5=
EXTT6=
EXTT7=
EXTT8=
EXTT9=
EXTT10=
EXTT11=
PLAYORDER=
